<svg width="399" height="65" viewBox="0 0 399 65" fill="none" xmlns="http://www.w3.org/2000/svg">
<g clip-path="url(#clip0_1_14)">
<path d="M128.544 39.3699C128.385 39.3487 128.23 39.324 128.071 39.3028C127.961 36.8009 127.834 34.299 127.753 31.7935C127.703 30.2069 127.837 28.6096 127.689 27.0371C127.548 25.5529 126.371 24.9592 125.042 24.9769C123.508 24.9946 124.123 26.3056 123.992 27.129C123.929 27.5318 123.992 27.9523 123.985 28.3622C123.964 29.6485 124.36 31.161 123.823 32.1752C122.568 34.5463 120.921 36.7196 119.306 38.8787C118.875 39.4547 117.977 39.6844 117.295 40.0731C117.164 39.324 116.758 38.49 116.952 37.8327C117.846 34.8008 118.875 31.8041 119.931 28.8252C120.32 27.7297 120.299 26.8569 119.207 26.2667C118.065 25.6518 117.086 25.9876 116.528 27.083C115.945 28.2244 115.404 29.4294 115.118 30.6698C114.231 34.4863 112.198 37.6984 109.961 40.8082C109.484 41.469 108.756 41.946 108.141 42.5079C107.95 42.4266 107.759 42.3453 107.569 42.2641C107.569 41.3771 107.438 40.4618 107.597 39.6067C107.869 38.1684 108.307 36.7585 108.714 35.3485C109.254 33.4862 109.887 31.6522 110.382 29.7793C110.82 28.1078 110.505 26.553 108.94 25.6094C107.342 24.6483 105.985 25.4681 104.822 26.5706C104.059 27.295 103.327 28.0831 102.73 28.9488C101.309 31.009 99.9734 33.1328 98.6056 35.2283C100.602 27.235 102.674 19.2769 107.841 12.5981C108.611 11.6016 108.88 10.75 107.798 9.88067C106.78 9.06084 105.72 9.02903 104.819 10.0291C104.193 10.7217 103.557 11.4709 103.175 12.3084C101.483 16.0471 99.7295 19.7717 98.2911 23.6093C97.1884 26.5565 96.5204 29.6662 95.6475 32.7512C93.5128 32.7512 91.3993 32.7724 89.2893 32.7335C88.9218 32.7264 88.4411 32.578 88.2114 32.3165C85.6667 29.4153 82.2243 28.0336 78.7678 26.6802C75.9793 25.5847 73.1272 24.6306 70.3952 23.415C66.8185 21.8248 66.0622 19.6339 68.2746 16.3899C73.3392 8.9725 80.4784 4.6083 89.3247 3.216C92.562 2.70714 94.0182 4.5765 92.7211 7.57312C91.7103 9.90894 90.187 12.0539 88.6814 14.1318C87.6212 15.5948 86.1898 16.7821 84.9599 18.1285C84.147 19.019 84.2141 19.966 85.0694 20.7823C85.8258 21.5067 86.6917 21.5103 87.4056 20.7293C90.9009 16.9235 93.9546 12.7996 95.0643 7.65087C96.0468 3.08525 93.6577 0.233503 88.9889 0.0214769C88.2891 -0.010327 87.5681 0.00380807 86.879 0.120422C78.3861 1.5728 71.5049 5.74264 66.2142 12.5133C65.5002 13.4286 64.9277 14.4922 64.4788 15.57C62.6764 19.9024 63.9346 23.8108 68.0414 26.1183C70.0771 27.2597 72.3143 28.0513 74.4914 28.9276C77.4849 30.1362 80.5067 31.2741 83.5108 32.4579C83.7087 32.5356 83.8607 32.7406 83.9526 32.8218C83.6416 33.154 83.3659 33.4473 83.2175 33.6063C84.3025 34.1117 85.6526 34.3131 86.1368 35.0729C86.7305 36.0022 87.0698 37.5783 86.6846 38.5465C85.9035 40.5113 84.8468 42.522 83.4048 44.0415C79.5666 48.0877 74.5691 50.1761 69.2324 51.4801C65.9456 52.2823 62.6163 52.6674 59.2799 51.7875C56.5515 51.0702 55.5937 49.268 56.7989 46.7131C57.4563 45.3208 58.4883 44.0097 59.6192 42.9496C62.8637 39.9141 66.8645 38.2108 71.0596 36.9033C71.7135 36.6984 72.3249 36.3627 72.9575 36.087C72.908 35.9104 72.8586 35.7372 72.8055 35.5605C72.1517 35.5994 71.4555 35.511 70.8476 35.7019C68.5538 36.4228 66.253 37.1436 64.0229 38.0306C58.9018 40.0696 53.9008 42.4443 48.7019 44.2465C40.7993 46.9816 32.7341 49.3351 24.2413 49.01C14.5787 48.6425 6.01162 46.2077 2.18402 35.8962C2.04619 35.5252 1.37114 35.087 1.00712 35.1365C0.618347 35.1859 0.0351943 35.7619 0.0104545 36.14C-0.0425593 36.9882 0.0528656 37.9069 0.342675 38.7091C2.00024 43.3065 5.37899 46.2855 9.70492 48.2715C16.5084 51.3953 23.644 51.3423 30.8327 50.2044C39.3644 48.851 47.3836 45.7377 55.4453 42.7906C56.0143 42.5821 56.5939 42.3983 57.527 42.0803C57.1594 42.6422 57.0428 42.8401 56.9049 43.0203C52.3952 48.904 54.5228 54.3884 61.7963 55.6075C62.2028 55.6747 62.6128 55.7065 63.0263 55.7348C70.9889 56.2648 78.0504 53.7983 84.1576 48.8581C88.8299 45.0769 92.0072 40.4689 89.4272 33.9314H95.393C95.2728 36.2319 95.0502 38.3981 95.1032 40.5573C95.1208 41.2711 95.8489 41.9637 96.2518 42.6669C96.6865 42.1192 97.2061 41.6209 97.5489 41.0202C99.8144 37.0518 101.984 33.0268 104.321 29.0973C104.847 28.2138 105.89 27.6378 106.696 26.9205L107.123 27.3162C106.71 28.5849 106.141 29.8288 105.907 31.1327C105.342 34.2848 104.791 37.4546 104.526 40.6421C104.409 42.052 105.201 43.4196 106.77 43.9002C108.335 44.3773 109.399 43.4019 110.233 42.3312C111.484 40.7233 112.569 38.9883 113.792 37.2072C113.867 37.656 113.951 38.0377 113.99 38.4193C114.121 39.7516 114.351 41.0449 115.828 41.5467C117.38 42.0732 118.574 41.3559 119.603 40.2746C120.087 39.7657 120.56 39.2321 120.956 38.6526C121.971 37.1684 122.943 35.6524 124.031 33.9951C124.141 34.458 124.222 34.7336 124.271 35.0128C124.628 37.0341 124.784 39.119 125.413 41.0484C125.696 41.9107 126.848 42.6775 127.781 43.0344C128.113 43.1616 129.163 42.0556 129.537 41.3311C133.086 34.4368 136.337 27.3763 141.098 21.171C141.285 20.9272 141.321 20.5632 141.427 20.2523L141.049 19.8317C140.451 20.2911 139.656 20.6304 139.281 21.2311C136.479 25.7119 133.736 30.2281 131.022 34.7619C130.128 36.2567 129.368 37.8292 128.544 39.3699Z" fill="black"/>
<path d="M175.653 25.7434C175.911 25.9449 176.169 26.1463 176.423 26.3477C176.303 26.8884 176.204 27.4326 176.063 27.9662C175.49 30.1218 174.698 32.2456 174.387 34.44C174.09 36.5497 173.935 38.8042 174.366 40.8573C174.91 43.4653 177.96 44.271 179.519 42.1366C181.668 39.2 183.205 35.8147 184.99 32.6131C185.011 32.5777 184.859 32.4435 184.587 32.1042C184.248 32.5883 183.923 32.9806 183.675 33.4152C182.491 35.5072 181.392 37.6522 180.12 39.6912C179.636 40.4651 178.777 41.0058 178.088 41.6524C177.9 41.5712 177.717 41.4899 177.529 41.4086C177.529 40.1718 177.31 38.889 177.572 37.7123C178.197 34.9065 179.084 32.1608 179.805 29.3762C180.47 26.8 180.099 25.1215 178.816 24.4148C177.49 23.6868 175.589 24.2699 173.889 26.217C172.507 27.8001 171.351 29.5776 170.121 31.2349C170.418 29.9027 170.956 28.5033 170.966 27.1004C170.973 26.1357 170.503 24.7187 169.786 24.3158C169.04 23.8953 167.485 24.1002 166.743 24.648C165.41 25.6339 164.304 27.0015 163.318 28.362C162.396 29.6377 161.749 31.1112 160.982 32.5C161.201 30.8921 161.699 29.4044 162.173 27.9061C162.647 26.4184 161.604 25.9025 160.526 25.4749C159.37 25.019 158.89 25.7752 158.632 26.7011C158.13 28.5104 157.621 30.3197 157.236 32.1572C156.624 35.0832 155.136 37.4932 153.019 39.5322C152.68 39.8573 152.001 40.1647 151.644 40.034C151.305 39.9103 151.036 39.2141 150.994 38.7442C150.92 37.9349 150.973 37.0974 151.104 36.2917C151.351 34.7863 151.701 33.2986 151.994 31.8003C152.238 30.5529 151.694 29.7613 150.524 29.362C149.382 28.9768 148.856 29.6483 148.273 30.507C146.559 33.0301 144.806 35.532 142.947 37.9491C142.349 38.7265 141.388 39.2247 140.579 39.8608C140.271 39.4686 140.101 39.3449 140.066 39.1929C139.377 36.002 143.477 28.2948 146.537 27.1463C146.954 26.9909 147.562 27.2842 148.064 27.422C148.555 27.5563 149.025 27.7577 149.506 27.9273C149.499 27.3266 149.718 26.5527 149.428 26.1604C148.937 25.4961 148.195 24.8706 147.428 24.5844C145.389 23.8211 143.576 24.6444 142.045 25.9343C139.048 28.4609 137.306 31.765 136.751 35.6132C136.334 38.5145 137.175 40.5923 138.826 41.1224C141.243 41.8998 142.706 40.3308 144.06 38.7371C145.138 37.4685 146.096 36.1009 147.177 34.6839C147.336 36.1539 147.318 37.4579 147.633 38.6805C148.527 42.1507 151.234 42.8787 153.818 40.3909C154.631 39.6064 155.32 38.6911 156.161 37.7229C156.285 38.8113 156.257 39.7195 156.529 40.5322C156.677 40.9704 157.299 41.4369 157.769 41.5146C158.116 41.5747 158.688 41.1082 158.939 40.7337C159.289 40.2071 159.388 39.5251 159.671 38.9456C161.42 35.3659 163.131 31.765 164.99 28.2418C165.47 27.3336 166.432 26.6799 167.174 25.9095C167.326 26.0049 167.478 26.1039 167.63 26.1993C167.414 27.0262 167.195 27.8531 166.983 28.6835C166.248 31.5812 165.449 34.4683 164.813 37.3872C164.559 38.5569 164.976 39.6983 166.319 40.0022C167.644 40.3025 167.891 39.1788 168.358 38.2777C170.023 35.0514 171.719 31.8356 173.486 28.6623C174.073 27.6128 174.914 26.7011 175.638 25.7293L175.653 25.7434Z" fill="black"/>
<path d="M301.232 57.4377C301.306 57.2222 301.377 57.0066 301.451 56.7946C300.875 56.5649 300.32 56.2363 299.723 56.1196C281.005 52.5364 262.224 51.8473 243.436 55.3776C238.728 56.261 234.148 57.8512 229.55 59.2506C228.408 59.5969 227.32 60.339 226.397 61.1235C225.418 61.9539 225.45 63.113 226.245 64.1272C227.065 65.1731 227.783 64.4452 228.67 64.0388C231.593 62.6995 234.502 61.1765 237.58 60.346C257.227 55.0454 277.195 54.8016 297.284 56.9359C298.602 57.0773 299.917 57.2681 301.232 57.4377Z" fill="black"/>
<path d="M166.294 55.6108C166.329 55.4164 166.365 55.2256 166.4 55.0313C165.933 54.8758 165.474 54.6708 164.993 54.5789C148.859 51.4268 132.747 51.2007 116.676 54.9853C112.085 56.0667 107.608 57.4978 103.561 59.9962C102.695 60.5333 101.698 61.3178 101.412 62.1977C101.158 62.9787 101.808 64.0565 102.059 65C102.759 64.795 103.525 64.7138 104.14 64.3604C105.155 63.7809 105.978 62.802 107.039 62.3921C111.188 60.7807 115.302 58.9255 119.603 57.8865C134.337 54.3351 149.283 53.9605 164.311 55.6037C164.961 55.6744 165.629 55.6143 166.29 55.6143L166.294 55.6108Z" fill="black"/>
<path d="M330.693 40.0163C329.555 36.0161 333.698 28.0404 337.087 27.058C337.469 26.9485 337.988 27.2665 338.426 27.4255C338.861 27.5881 339.278 27.8001 339.702 27.9945C339.773 27.4573 340.091 26.747 339.861 26.4255C339.345 25.701 338.656 24.9378 337.861 24.6091C335.776 23.7469 333.906 24.5632 332.333 25.9307C329.432 28.4432 327.626 31.6236 327.085 35.4472C326.675 38.3307 327.403 40.3803 328.962 41.0764C330.651 41.8327 332.326 41.1471 334.369 38.7371C335.447 37.4614 336.408 36.0903 337.511 34.645C337.684 36.161 337.684 37.5179 338.013 38.7866C338.872 42.1012 341.667 43.0129 343.904 40.4686C345.809 38.3024 347.124 35.6097 348.669 33.1325C348.771 32.97 348.605 32.6413 348.471 31.825C347.898 32.7686 347.605 33.2916 347.273 33.7898C346.039 35.638 344.838 37.5144 343.512 39.2954C343.183 39.7336 342.424 39.8538 341.862 40.1188C341.657 39.5463 341.226 38.9456 341.286 38.4014C341.519 36.2493 341.872 34.1079 342.247 31.9735C342.459 30.7614 342.141 29.9133 340.975 29.4009C339.752 28.8638 339.2 29.5458 338.578 30.4681C336.868 32.9983 335.115 35.5002 333.263 37.9243C332.662 38.7124 331.697 39.2212 330.697 40.0198L330.693 40.0163Z" fill="black"/>
<path d="M347.213 24.966C347.28 25.0614 347.347 25.1533 347.414 25.2487C347.764 25.1286 348.121 25.0155 348.467 24.8847C352.973 23.2133 357.395 21.2556 361.996 19.9304C369.666 17.7253 377.441 17.4603 385.04 20.4004C390.447 22.4959 394.784 25.8035 396.692 31.613C396.862 32.1254 397.583 32.4541 398.046 32.8675C398.367 32.2986 398.862 31.7579 398.965 31.1501C399.064 30.5564 398.922 29.7967 398.608 29.2807C397.304 27.1499 396.201 24.7752 394.462 23.0543C389.422 18.0575 382.937 16.4214 376.066 16.2376C365.88 15.962 356.684 19.3721 347.919 24.2027C347.63 24.3617 347.442 24.7081 347.209 24.966H347.213Z" fill="black"/>
<path d="M272.852 20.2732C272.728 20.1318 272.608 19.987 272.484 19.8456C271.919 20.2449 271.18 20.5276 270.816 21.0612C268.943 23.8352 267.084 26.6234 265.377 29.5034C263.472 32.7191 261.737 36.0373 259.687 39.7442C259.521 38.677 259.365 38.0763 259.344 37.472C259.238 34.5955 259.171 31.7155 259.089 28.839C259.072 28.1923 259.125 27.5315 259.008 26.9061C258.754 25.5314 257.743 24.9342 256.463 24.9342C254.912 24.9342 255.407 26.2064 255.389 27.0403C255.357 28.5069 255.35 29.991 255.513 31.4434C255.87 34.6485 256.205 37.8678 256.859 41.0164C257.032 41.8433 258.245 42.6525 259.16 43.0235C259.482 43.1543 260.556 42.0588 260.931 41.3379C264.497 34.4542 267.794 27.422 272.498 21.1884C272.686 20.9375 272.735 20.5806 272.848 20.2767L272.852 20.2732Z" fill="black"/>
<path d="M119.543 23.9342C121.13 23.966 122.681 22.6302 122.692 21.3828C122.706 20.0188 121.769 19.5629 120.628 19.4816C119.362 19.3933 118.133 20.722 118.101 22.1319C118.076 23.2628 118.652 23.867 119.543 23.9306V23.9342Z" fill="black"/>
<path d="M306.675 19.4781C305.31 19.5311 304.141 20.8492 304.144 22.238C304.144 23.4112 304.794 23.9412 305.908 23.9342C307.208 23.9271 308.809 22.4606 308.749 21.2874C308.682 19.9481 307.721 19.5841 306.675 19.4781Z" fill="black"/>
<path d="M128.544 39.3696C129.368 37.8324 130.128 36.2564 131.022 34.7616C133.736 30.2278 136.479 25.7081 139.281 21.2308C139.656 20.6301 140.448 20.2908 141.049 19.8314L141.427 20.252C141.321 20.5594 141.289 20.9234 141.098 21.1707C136.341 27.376 133.089 34.4365 129.538 41.3308C129.166 42.0553 128.113 43.1613 127.781 43.0341C126.848 42.6772 125.696 41.9104 125.413 41.0481C124.78 39.1187 124.625 37.0338 124.271 35.0125C124.222 34.7298 124.141 34.4541 124.031 33.9948C122.939 35.6521 121.971 37.1681 120.956 38.6523C120.56 39.2318 120.087 39.7654 119.603 40.2743C118.574 41.3556 117.38 42.0729 115.828 41.5464C114.351 41.0446 114.121 39.7477 113.99 38.419C113.951 38.0338 113.867 37.6557 113.792 37.2069C112.57 38.988 111.481 40.723 110.233 42.3309C109.399 43.4016 108.336 44.3769 106.77 43.8999C105.197 43.4193 104.405 42.0517 104.526 40.6418C104.791 37.4543 105.342 34.2845 105.907 31.1324C106.141 29.8285 106.706 28.5881 107.123 27.316L106.696 26.9202C105.89 27.6375 104.847 28.2135 104.321 29.097C101.988 33.0265 99.8144 37.0479 97.549 41.0199C97.2061 41.6206 96.6901 42.1189 96.2519 42.6666C95.849 41.9634 95.1209 41.2708 95.1032 40.5569C95.0502 38.3978 95.2729 36.2281 95.3931 33.9311H89.4272C92.0072 40.4686 88.8264 45.0731 84.1576 48.8578C78.054 53.8015 70.989 56.2645 63.0263 55.7345C62.6163 55.7062 62.2028 55.6744 61.7964 55.6072C54.5264 54.3881 52.3988 48.9072 56.905 43.02C57.0428 42.8398 57.1559 42.6383 57.527 42.08C56.5904 42.398 56.0144 42.5818 55.4453 42.7903C47.3837 45.741 39.3645 48.8542 30.8328 50.2041C23.6476 51.342 16.5084 51.395 9.70498 48.2712C5.37905 46.2852 2.0003 43.3062 0.342736 38.7088C0.0529267 37.9102 -0.0424983 36.9914 0.0105156 36.1398C0.0352554 35.7616 0.618408 35.1856 1.00718 35.1362C1.3712 35.0867 2.04625 35.5249 2.18408 35.8959C6.01168 46.2074 14.5787 48.6422 24.2414 49.0097C32.7342 49.3348 40.7994 46.9813 48.702 44.2462C53.9044 42.444 58.9018 40.0693 64.023 38.0303C66.2531 37.1433 68.5539 36.4225 70.8476 35.7016C71.4555 35.5107 72.1518 35.5991 72.8056 35.5602C72.8551 35.7369 72.9046 35.9101 72.9576 36.0867C72.325 36.3624 71.7135 36.6981 71.0597 36.903C66.8681 38.207 62.8673 39.9138 59.6193 42.9493C58.4848 44.0094 57.4563 45.3169 56.799 46.7128C55.5938 49.2677 56.5516 51.0699 59.28 51.7872C62.6163 52.6636 65.9421 52.282 69.2325 51.4798C74.5692 50.1758 79.5667 48.0874 83.4049 44.0412C84.8468 42.5217 85.9071 40.511 86.6846 38.5462C87.0699 37.578 86.7306 36.0019 86.1368 35.0726C85.6526 34.3163 84.3026 34.1114 83.2175 33.606C83.366 33.447 83.6416 33.1537 83.9527 32.8215C83.8608 32.7438 83.7088 32.5353 83.5109 32.4576C80.5068 31.2738 77.485 30.1359 74.4915 28.9273C72.3144 28.0474 70.0772 27.2594 68.0414 26.118C63.9346 23.8105 62.6764 19.9057 64.4789 15.5697C64.9242 14.4955 65.5003 13.4283 66.2142 12.513C71.505 5.73881 78.3862 1.56544 86.879 0.11306C87.5682 -0.0035543 88.2892 -0.0176893 88.989 0.0141145C93.6613 0.229674 96.0504 3.07788 95.0644 7.6435C93.9546 12.7957 90.8975 16.9161 87.4056 20.722C86.6882 21.5029 85.8258 21.4994 85.0695 20.775C84.2142 19.9587 84.147 19.0116 84.9599 18.1211C86.1898 16.7747 87.6212 15.5874 88.6815 14.1244C90.1871 12.0466 91.7139 9.90158 92.7212 7.56576C94.0182 4.56913 92.5621 2.69977 89.3247 3.20863C80.4785 4.60094 73.3357 8.96513 68.2747 16.3825C66.0622 19.623 66.8221 21.8139 70.3952 23.4076C73.1272 24.6232 75.9794 25.5809 78.7679 26.6728C82.2244 28.0298 85.6668 29.4115 88.2114 32.3092C88.4412 32.5707 88.9218 32.7191 89.2894 32.7261C91.3993 32.765 93.5128 32.7438 95.6475 32.7438C96.5205 29.6588 97.1884 26.5491 98.2911 23.602C99.7296 19.7643 101.483 16.0397 103.175 12.301C103.554 11.4635 104.193 10.7179 104.819 10.0217C105.72 9.02167 106.78 9.05348 107.798 9.87331C108.88 10.7426 108.615 11.5907 107.841 12.5908C102.674 19.2696 100.603 27.2311 98.6057 35.221C99.9734 33.1255 101.309 31.0017 102.73 28.9415C103.327 28.0792 104.059 27.2877 104.822 26.5633C105.985 25.4607 107.342 24.6409 108.94 25.6021C110.509 26.5456 110.824 28.104 110.382 29.7719C109.891 31.6448 109.254 33.4788 108.714 35.3411C108.304 36.7511 107.869 38.1611 107.597 39.5993C107.434 40.458 107.569 41.3697 107.569 42.2567C107.759 42.338 107.95 42.4192 108.141 42.5005C108.753 41.9387 109.484 41.4616 109.961 40.8008C112.198 37.6946 114.227 34.4789 115.118 30.6624C115.408 29.4221 115.948 28.2171 116.528 27.0757C117.086 25.9802 118.065 25.6445 119.207 26.2594C120.299 26.8495 120.32 27.7223 119.931 28.8178C118.875 31.8003 117.85 34.7934 116.952 37.8254C116.758 38.4791 117.164 39.3131 117.295 40.0658C117.977 39.677 118.875 39.4474 119.306 38.8713C120.921 36.7122 122.571 34.539 123.823 32.1678C124.36 31.1501 123.964 29.6412 123.985 28.3549C123.992 27.945 123.929 27.5244 123.992 27.1216C124.123 26.2982 123.508 24.9872 125.042 24.9695C126.371 24.9519 127.548 25.5491 127.689 27.0297C127.838 28.6022 127.703 30.203 127.753 31.7862C127.83 34.2881 127.961 36.79 128.071 39.2954C128.23 39.3166 128.385 39.3413 128.544 39.3625V39.3696Z" fill="white"/>
<path d="M221.891 32.5671C220.008 31.8039 218.134 31.0123 216.236 30.2843C213.384 29.1924 210.426 28.3337 207.669 27.0403C201.435 24.1144 199.908 18.7431 203.934 13.1703C209.232 5.83071 216.487 1.41704 225.514 0.169623C226.97 -0.0318016 228.592 0.208494 230.013 0.643147C232.653 1.45238 234.06 3.96488 233.477 6.99332C232.42 12.4954 229.264 16.8702 225.51 20.8598C224.758 21.6584 223.87 21.4747 223.181 20.7467C222.39 19.9092 222.319 18.9798 223.171 18.0858C224.51 16.6829 226.002 15.3895 227.14 13.8382C228.589 11.8664 230.038 9.80266 230.971 7.56578C232.236 4.53735 230.805 2.89062 227.521 3.25106C221.775 3.88007 216.809 6.41731 212.458 10.043C210.186 11.937 208.076 14.1704 206.394 16.5981C204.195 19.7714 204.927 21.9199 208.436 23.4854C211.49 24.8459 214.688 25.8777 217.799 27.1181C220.866 28.3408 223.86 29.6907 226.175 32.189C226.504 32.5424 227.196 32.6838 227.726 32.6979C229.716 32.7544 231.713 32.7226 233.639 32.7226C234.841 30.8992 235.898 28.832 237.4 27.164C238.481 25.9625 240.064 25.0508 241.595 24.4536C243.373 23.761 245.546 24.7752 246.083 26.2735C246.264 26.7753 245.981 27.4432 245.907 28.0333C245.479 27.8284 244.921 27.7294 244.645 27.4008C243.779 26.3619 242.864 26.9803 242.362 27.528C240.87 29.1571 239.396 30.8533 238.248 32.7262C237.41 34.0937 237.036 35.7652 236.59 37.3377C236.399 38.0091 236.558 38.7795 236.558 39.5039L237.043 39.7725C237.806 39.2141 238.746 38.7901 239.305 38.0692C241.181 35.6663 242.963 33.1891 244.691 30.673C245.334 29.7366 245.85 28.8355 247.168 29.362C248.434 29.8673 248.677 30.8391 248.434 32.1007C248.087 33.8852 247.727 35.6804 247.592 37.4861C247.529 38.3272 247.985 39.2071 248.204 40.0658C248.964 39.5711 249.925 39.2248 250.445 38.5463C251.618 37.0197 252.583 35.327 253.622 33.6944C253.915 33.235 254.17 32.7474 254.438 32.2738C254.576 32.3198 254.714 32.3657 254.852 32.4117C254.827 32.7544 254.922 33.1679 254.763 33.4223C253.286 35.8041 252.007 38.366 250.19 40.4616C248.091 42.8822 245.21 42.0447 244.302 38.9385C243.913 37.6098 243.913 36.168 243.719 34.6273C242.821 35.85 241.955 37.0373 241.082 38.2247C240.976 38.366 240.86 38.4968 240.743 38.6311C238.598 41.1047 236.887 41.8433 235.201 41.0199C233.607 40.2425 232.901 38.0657 233.303 35.2033C233.36 34.7969 233.424 34.3941 233.505 33.8711H227.592C230.292 40.4651 227.299 45.3311 222.503 49.3313C216.127 54.6532 208.85 57.8088 200.301 57.1232C199.661 57.0738 199.021 56.9324 198.396 56.7734C192.638 55.2786 190.337 49.6988 193.762 44.8434C195.169 42.8469 197.204 41.1012 199.304 39.8149C205.369 36.0974 212.218 34.5814 219.156 33.447C220.025 33.3057 220.895 33.1679 221.764 33.0301C221.803 32.8781 221.838 32.7226 221.877 32.5707L221.891 32.5671ZM201.488 54.0347C202.619 53.8404 204.563 53.6637 206.418 53.1584C212.84 51.4162 218.562 48.4514 222.824 43.1543C224.178 41.4722 225.136 39.6029 225.069 37.3695C224.987 34.8181 223.881 33.7828 221.453 34.2739C217.314 35.1079 213.14 35.8818 209.108 37.0939C204.425 38.5039 199.936 40.5004 196.469 44.1367C194.632 46.0626 193.183 48.3171 194.384 51.1159C195.561 53.8581 198.173 53.9252 201.492 54.0418L201.488 54.0347Z" fill="white"/>
<path d="M320.557 32.7544C319.182 34.7157 317.878 36.7334 316.415 38.6275C315.189 40.2177 313.778 41.9846 311.456 41.1506C309.195 40.3343 309.092 38.1646 309.103 36.1044C309.103 35.9878 309.067 35.8747 309.018 35.5426C308.148 36.79 307.403 37.942 306.565 39.0269C306.031 39.7195 305.423 40.3874 304.741 40.928C302.635 42.5924 300.366 41.6772 299.938 39.0269C299.839 38.4014 299.839 37.7582 299.776 36.8642C298.67 38.4579 297.761 39.9386 296.676 41.2743C295.496 42.7267 294.223 44.4123 292.004 43.6773C289.915 42.9882 289.516 41.034 289.268 39.1187C289.145 38.1611 289.078 37.1999 288.975 36.1433C287.756 37.677 286.756 39.2106 285.487 40.4686C283.083 42.8469 280.415 42.08 279.553 38.8078C279.217 37.5321 279.189 36.1751 279.005 34.7051C277.832 36.2175 276.8 37.6982 275.605 39.0269C274.873 39.8396 273.976 40.5994 272.997 41.0623C271.374 41.8327 269.583 41.034 268.939 39.352C268.653 38.6028 268.483 37.7441 268.519 36.9455C268.731 32.1996 270.798 28.3549 274.541 25.482C276.096 24.2875 277.962 23.7681 279.828 24.8211C280.493 25.1957 281.037 25.9131 281.419 26.5951C281.599 26.9202 281.27 27.5315 281.171 28.0121C280.783 27.8602 280.404 27.6729 280.005 27.5633C279.411 27.4043 278.68 27.0191 278.217 27.2135C275.068 28.5493 271.244 35.7793 271.82 39.1258C271.848 39.2813 271.993 39.4191 272.258 39.8502C273.05 39.2672 273.983 38.8431 274.541 38.1257C276.418 35.7228 278.178 33.2244 279.949 30.7402C280.574 29.8638 281.062 28.8426 282.43 29.3832C283.819 29.9345 283.925 31.03 283.67 32.2986C283.359 33.8534 283.002 35.4048 282.833 36.9773C282.726 37.9773 282.924 39.0092 283.009 40.458C283.988 39.8785 284.667 39.6488 285.109 39.1859C287.289 36.9066 289.032 34.3517 289.689 31.196C291.127 24.3052 293.509 17.7536 296.803 11.5413C297.486 10.2514 298.362 9.04996 299.253 7.88736C300.062 6.83076 301.101 6.70708 302.172 7.56932C303.211 8.40329 303.37 9.29379 302.547 10.4564C297.026 18.2307 293.941 26.9803 292.379 36.3094C292.138 37.7406 292.138 39.2495 292.287 40.6983C292.442 42.2072 293.418 42.5748 294.63 41.6489C295.411 41.0517 296.121 40.2955 296.673 39.4827C298.553 36.7087 300.359 33.9029 301.076 30.5317C301.327 29.3479 301.893 28.2065 302.455 27.1181C303.02 26.0226 303.978 25.6798 305.134 26.27C306.3 26.8637 306.19 27.8072 305.812 28.839C304.844 31.4823 303.83 34.1114 302.978 36.7935C302.66 37.8006 302.741 38.935 302.642 40.0092C302.815 40.1223 302.985 40.2389 303.158 40.352C303.791 39.9386 304.653 39.67 305.017 39.0905C306.876 36.1327 308.682 33.1325 310.343 30.0617C311.145 28.5775 311.573 26.8919 312.22 25.3194C312.556 24.5066 312.92 23.5455 314.114 24.0402C315.277 24.5208 316.199 25.3088 315.839 26.7258C315.567 27.8001 315.015 28.8002 314.68 29.8603C313.867 32.4293 313.068 35.0054 312.347 37.6028C312.188 38.1717 312.379 38.836 312.439 40.0375C313.538 39.2601 314.446 38.8996 314.927 38.2282C317.076 35.2245 319.08 32.1219 321.183 29.0899C321.6 28.4927 322.278 27.5669 322.752 27.6163C323.968 27.74 324.696 28.7259 324.604 30.0052C324.455 32.0547 324.272 34.1079 323.95 36.1327C322.907 42.6702 321.229 49.0274 317.871 54.798C316.818 56.6073 315.464 58.2788 314.054 59.8372C313.298 60.6747 312.199 61.3107 311.135 61.7348C307.332 63.2508 303.971 60.6499 304.763 56.6603C305.151 54.7097 306.053 52.7379 307.166 51.0734C309.771 47.1757 313.503 44.4759 317.634 42.3627C318.733 41.8009 319.366 41.14 319.568 39.8962C319.949 37.5285 320.465 35.1857 320.928 32.8286C320.805 32.8004 320.681 32.7756 320.557 32.7474V32.7544ZM318.688 43.1084C313.595 45.953 309.491 49.1935 307.134 54.1796C306.576 55.3599 306.328 56.7699 306.286 58.0844C306.229 59.8301 307.463 60.5899 309 59.7382C310.149 59.1022 311.223 58.1728 312.061 57.1551C315.33 53.1796 317.048 48.4408 318.688 43.1119V43.1084Z" fill="white"/>
<path d="M175.653 25.7434C174.928 26.7188 174.087 27.6269 173.5 28.6765C171.733 31.8498 170.037 35.062 168.372 38.2918C167.909 39.1929 167.658 40.3167 166.333 40.0163C164.99 39.7089 164.573 38.571 164.827 37.4013C165.463 34.4824 166.262 31.5954 166.997 28.6977C167.209 27.8672 167.428 27.0439 167.644 26.2134C167.492 26.118 167.34 26.0191 167.188 25.9237C166.446 26.694 165.485 27.3478 165.004 28.256C163.145 31.7791 161.434 35.3765 159.685 38.9597C159.402 39.5393 159.303 40.2213 158.953 40.7478C158.702 41.1259 158.13 41.5888 157.783 41.5288C157.313 41.4475 156.691 40.981 156.543 40.5464C156.271 39.7371 156.295 38.8254 156.175 37.737C155.331 38.7053 154.645 39.6205 153.832 40.405C151.245 42.8928 148.541 42.1648 147.647 38.6947C147.333 37.472 147.347 36.168 147.191 34.698C146.11 36.115 145.148 37.4826 144.074 38.7512C142.72 40.3449 141.257 41.9175 138.84 41.1365C137.189 40.6029 136.348 38.5286 136.765 35.6274C137.32 31.7791 139.062 28.4715 142.059 25.9484C143.59 24.6586 145.399 23.8388 147.442 24.5985C148.213 24.8847 148.951 25.5102 149.443 26.1746C149.732 26.5668 149.513 27.3407 149.52 27.9414C149.04 27.7683 148.57 27.5704 148.078 27.4361C147.573 27.2983 146.969 27.0015 146.552 27.1605C143.491 28.309 139.391 36.0196 140.08 39.2071C140.112 39.359 140.285 39.4827 140.593 39.875C141.402 39.2389 142.363 38.7406 142.961 37.9632C144.816 35.5426 146.573 33.0442 148.287 30.5211C148.87 29.6624 149.397 28.991 150.538 29.3762C151.708 29.7719 152.256 30.567 152.008 31.8144C151.715 33.3128 151.365 34.8005 151.118 36.3059C150.987 37.1116 150.934 37.9491 151.008 38.7583C151.051 39.2283 151.319 39.9244 151.659 40.0481C152.015 40.1789 152.698 39.8714 153.033 39.5463C155.154 37.5073 156.638 35.0973 157.25 32.1714C157.635 30.3373 158.144 28.5245 158.646 26.7152C158.9 25.7894 159.384 25.0332 160.54 25.489C161.618 25.9166 162.657 26.4325 162.187 27.9202C161.714 29.415 161.219 30.9063 160.996 32.5141C161.763 31.1254 162.41 29.6518 163.332 28.3761C164.318 27.0156 165.421 25.648 166.757 24.6621C167.499 24.1144 169.054 23.9094 169.8 24.3299C170.514 24.7328 170.987 26.1498 170.98 27.1145C170.97 28.5175 170.433 29.9168 170.136 31.249C171.366 29.5917 172.525 27.8142 173.903 26.2311C175.603 24.284 177.505 23.7009 178.83 24.4289C180.113 25.1356 180.484 26.8142 179.82 29.3903C179.099 32.1749 178.215 34.9206 177.586 37.7264C177.324 38.9032 177.543 40.1859 177.543 41.4227C177.731 41.504 177.915 41.5853 178.102 41.6666C178.791 41.0199 179.653 40.4792 180.134 39.7053C181.406 37.6664 182.502 35.5214 183.69 33.4294C183.937 32.9947 184.262 32.6025 184.601 32.1184C184.873 32.4576 185.025 32.5883 185.004 32.6272C183.219 35.8288 181.682 39.2141 179.533 42.1507C177.975 44.2816 174.925 43.4794 174.38 40.8715C173.949 38.8148 174.108 36.5638 174.401 34.4542C174.709 32.2597 175.504 30.1359 176.077 27.9803C176.218 27.4467 176.317 26.9025 176.437 26.3619C176.179 26.1604 175.921 25.959 175.667 25.7576L175.653 25.7434Z" fill="white"/>
<path d="M301.232 57.4377C299.917 57.2681 298.602 57.0773 297.284 56.9359C277.195 54.8016 257.227 55.0454 237.58 60.346C234.498 61.1765 231.593 62.6995 228.67 64.0388C227.786 64.4452 227.065 65.1731 226.246 64.1272C225.45 63.113 225.415 61.9539 226.397 61.1235C227.32 60.339 228.408 59.5969 229.55 59.2506C234.148 57.8512 238.729 56.261 243.436 55.3776C262.228 51.8509 281.005 52.5399 299.723 56.1196C300.32 56.2327 300.875 56.5649 301.451 56.7946C301.377 57.0102 301.306 57.2257 301.232 57.4377Z" fill="white"/>
<path d="M166.294 55.6108C165.633 55.6108 164.969 55.6744 164.315 55.6002C149.287 53.957 134.341 54.3351 119.606 57.883C115.305 58.9184 111.191 60.7772 107.042 62.3886C105.982 62.7985 105.158 63.7773 104.144 64.3569C103.529 64.7067 102.762 64.7915 102.062 64.9965C101.811 64.0494 101.161 62.9752 101.416 62.1942C101.702 61.3143 102.698 60.5298 103.564 59.9927C107.608 57.4943 112.089 56.0596 116.68 54.9818C132.75 51.2007 148.866 51.4233 164.997 54.5754C165.477 54.6708 165.933 54.8758 166.403 55.0277C166.368 55.2221 166.333 55.4129 166.297 55.6073L166.294 55.6108Z" fill="white"/>
<path d="M330.693 40.0163C331.694 39.2177 332.658 38.7088 333.259 37.9208C335.111 35.4966 336.868 32.9947 338.575 30.4646C339.197 29.5422 339.748 28.8567 340.971 29.3974C342.134 29.9098 342.455 30.7579 342.243 31.9699C341.869 34.1043 341.515 36.2458 341.282 38.3978C341.222 38.942 341.653 39.5428 341.858 40.1153C342.42 39.8502 343.183 39.7336 343.509 39.2919C344.837 37.5109 346.036 35.6344 347.269 33.7863C347.601 33.288 347.895 32.765 348.467 31.8215C348.601 32.6378 348.764 32.9665 348.665 33.129C347.121 35.6062 345.809 38.2989 343.901 40.4651C341.664 43.0094 338.868 42.0977 338.009 38.783C337.681 37.5144 337.681 36.161 337.507 34.6415C336.405 36.0868 335.443 37.4579 334.365 38.7336C332.323 41.1436 330.644 41.8327 328.958 41.0729C327.403 40.3732 326.675 38.3272 327.081 35.4436C327.622 31.6201 329.428 28.4397 332.33 25.9272C333.906 24.5632 335.776 23.7469 337.857 24.6056C338.649 24.9342 339.342 25.6975 339.858 26.4219C340.087 26.7435 339.769 27.4573 339.699 27.9909C339.275 27.8001 338.861 27.5845 338.423 27.422C337.985 27.2594 337.465 26.9414 337.083 27.0545C333.694 28.0369 329.552 36.0126 330.69 40.0128L330.693 40.0163Z" fill="white"/>
<path d="M347.213 24.966C347.446 24.7081 347.633 24.3617 347.923 24.2027C356.688 19.3721 365.884 15.962 376.07 16.2376C382.937 16.4249 389.422 18.0611 394.466 23.0543C396.201 24.7752 397.307 27.1499 398.611 29.2807C398.926 29.7967 399.067 30.5564 398.968 31.1501C398.866 31.7579 398.371 32.2986 398.049 32.8675C397.586 32.4541 396.865 32.1219 396.696 31.613C394.784 25.8035 390.451 22.4959 385.043 20.4004C377.448 17.4568 369.669 17.7253 362 19.9304C357.395 21.2556 352.973 23.2133 348.471 24.8847C348.121 25.0155 347.767 25.1286 347.418 25.2487C347.35 25.1533 347.283 25.0614 347.216 24.966H347.213Z" fill="white"/>
<path d="M272.852 20.2732C272.739 20.5806 272.689 20.934 272.502 21.1849C267.801 27.4185 264.5 34.4506 260.934 41.3344C260.56 42.0553 259.485 43.1508 259.164 43.02C258.248 42.649 257.032 41.8397 256.863 41.0128C256.209 37.8643 255.877 34.645 255.516 31.4399C255.354 29.984 255.364 28.5033 255.393 27.0368C255.41 26.2028 254.915 24.9307 256.467 24.9307C257.746 24.9307 258.754 25.5314 259.012 26.9025C259.128 27.5315 259.072 28.1923 259.093 28.8355C259.174 31.712 259.245 34.592 259.347 37.4685C259.369 38.0727 259.524 38.6735 259.69 39.7407C261.737 36.0338 263.472 32.7191 265.38 29.4998C267.084 26.6198 268.946 23.8317 270.82 21.0577C271.18 20.5206 271.922 20.2414 272.488 19.8421C272.611 19.9834 272.732 20.1283 272.855 20.2697L272.852 20.2732Z" fill="white"/>
<path d="M119.543 23.9342C118.652 23.8706 118.076 23.2663 118.101 22.1355C118.133 20.7255 119.362 19.3968 120.628 19.4852C121.769 19.5629 122.706 20.0188 122.692 21.3863C122.681 22.6302 121.13 23.9695 119.543 23.9377V23.9342Z" fill="white"/>
<path d="M306.675 19.4781C307.721 19.5841 308.682 19.9481 308.749 21.2874C308.809 22.4606 307.208 23.9271 305.908 23.9342C304.791 23.9377 304.144 23.4076 304.144 22.238C304.144 20.8492 305.31 19.5311 306.675 19.4781Z" fill="white"/>
</g>
<defs>
<clipPath id="clip0_1_14">
<rect width="399" height="65" fill="white"/>
</clipPath>
</defs>
</svg>
